<svg xmlns="http://www.w3.org/2000/svg" viewBox="0 0 120 120">
  <defs>
    <linearGradient id="calcBgAndroid" x1="0%" y1="0%" x2="0%" y2="100%">
      <stop offset="0%" style="stop-color:#4285f4"/>
      <stop offset="100%" style="stop-color:#3367d6"/>
    </linearGradient>
  </defs>
  <circle cx="60" cy="60" r="56" fill="url(#calcBgAndroid)"/>
  <rect x="24" y="24" width="72" height="72" rx="8" fill="#ffffff"/>
  <rect x="32" y="32" width="56" height="16" rx="2" fill="#e8eaed"/>
  <text x="82" y="44" font-family="Roboto, Arial, sans-serif" font-size="12" fill="#202124" text-anchor="end">123</text>
  <rect x="32" y="54" width="12" height="12" rx="2" fill="#dadce0"/>
  <rect x="48" y="54" width="12" height="12" rx="2" fill="#dadce0"/>
  <rect x="64" y="54" width="12" height="12" rx="2" fill="#dadce0"/>
  <rect x="80" y="54" width="12" height="12" rx="2" fill="#4285f4"/>
  <rect x="32" y="70" width="12" height="12" rx="2" fill="#f1f3f4"/>
  <rect x="48" y="70" width="12" height="12" rx="2" fill="#f1f3f4"/>
  <rect x="64" y="70" width="12" height="12" rx="2" fill="#f1f3f4"/>
  <rect x="80" y="70" width="12" height="12" rx="2" fill="#4285f4"/>
  <rect x="32" y="86" width="28" height="12" rx="2" fill="#f1f3f4"/>
  <rect x="64" y="86" width="12" height="12" rx="2" fill="#f1f3f4"/>
  <rect x="80" y="86" width="12" height="12" rx="2" fill="#34a853"/>
  <text x="38" y="63" font-family="Roboto, Arial" font-size="8" fill="#5f6368">C</text>
  <text x="52" y="63" font-family="Roboto, Arial" font-size="8" fill="#5f6368">±</text>
  <text x="68" y="63" font-family="Roboto, Arial" font-size="8" fill="#5f6368">%</text>
  <text x="84" y="63" font-family="Roboto, Arial" font-size="8" fill="#fff">÷</text>
  <text x="36" y="79" font-family="Roboto, Arial" font-size="8" fill="#202124">7</text>
  <text x="52" y="79" font-family="Roboto, Arial" font-size="8" fill="#202124">8</text>
  <text x="68" y="79" font-family="Roboto, Arial" font-size="8" fill="#202124">9</text>
  <text x="84" y="79" font-family="Roboto, Arial" font-size="8" fill="#fff">×</text>
  <text x="44" y="95" font-family="Roboto, Arial" font-size="8" fill="#202124">0</text>
  <text x="68" y="95" font-family="Roboto, Arial" font-size="8" fill="#202124">.</text>
  <text x="84" y="95" font-family="Roboto, Arial" font-size="8" fill="#fff">=</text>
</svg>
