<svg xmlns="http://www.w3.org/2000/svg" viewBox="0 0 120 120">
  <defs>
    <linearGradient id="calcBgIos" x1="0%" y1="0%" x2="0%" y2="100%">
      <stop offset="0%" style="stop-color:#3d3d3d"/>
      <stop offset="100%" style="stop-color:#1c1c1c"/>
    </linearGradient>
  </defs>
  <rect x="4" y="4" width="112" height="112" rx="24" fill="url(#calcBgIos)"/>
  <rect x="16" y="12" width="88" height="24" rx="6" fill="#505050"/>
  <text x="96" y="30" font-family="SF Pro Display, -apple-system, Arial, sans-serif" font-size="18" fill="#fff" text-anchor="end">123</text>
  <rect x="16" y="44" width="18" height="18" rx="4" fill="#636363"/>
  <rect x="39" y="44" width="18" height="18" rx="4" fill="#636363"/>
  <rect x="62" y="44" width="18" height="18" rx="4" fill="#636363"/>
  <rect x="85" y="44" width="18" height="18" rx="4" fill="#ff9500"/>
  <rect x="16" y="67" width="18" height="18" rx="4" fill="#8c8c8c"/>
  <rect x="39" y="67" width="18" height="18" rx="4" fill="#8c8c8c"/>
  <rect x="62" y="67" width="18" height="18" rx="4" fill="#8c8c8c"/>
  <rect x="85" y="67" width="18" height="18" rx="4" fill="#ff9500"/>
  <rect x="16" y="90" width="41" height="18" rx="4" fill="#8c8c8c"/>
  <rect x="62" y="90" width="18" height="18" rx="4" fill="#8c8c8c"/>
  <rect x="85" y="90" width="18" height="18" rx="4" fill="#ff9500"/>
  <text x="25" y="57" font-family="SF Pro Display, Arial" font-size="10" fill="#fff">C</text>
  <text x="44" y="57" font-family="SF Pro Display, Arial" font-size="10" fill="#fff">±</text>
  <text x="67" y="57" font-family="SF Pro Display, Arial" font-size="10" fill="#fff">%</text>
  <text x="90" y="57" font-family="SF Pro Display, Arial" font-size="10" fill="#fff">÷</text>
  <text x="23" y="80" font-family="SF Pro Display, Arial" font-size="10" fill="#fff">7</text>
  <text x="46" y="80" font-family="SF Pro Display, Arial" font-size="10" fill="#fff">8</text>
  <text x="69" y="80" font-family="SF Pro Display, Arial" font-size="10" fill="#fff">9</text>
  <text x="91" y="80" font-family="SF Pro Display, Arial" font-size="10" fill="#fff">×</text>
  <text x="34" y="103" font-family="SF Pro Display, Arial" font-size="10" fill="#fff">0</text>
  <text x="69" y="103" font-family="SF Pro Display, Arial" font-size="10" fill="#fff">.</text>
  <text x="91" y="103" font-family="SF Pro Display, Arial" font-size="10" fill="#fff">=</text>
</svg>
