<svg xmlns="http://www.w3.org/2000/svg" viewBox="0 0 120 120">
  <defs>
    <linearGradient id="camBg" x1="0%" y1="0%" x2="100%" y2="100%">
      <stop offset="0%" style="stop-color:#1e293b"/>
      <stop offset="50%" style="stop-color:#0f172a"/>
      <stop offset="100%" style="stop-color:#020617"/>
    </linearGradient>
    <linearGradient id="lensOuter" x1="0%" y1="0%" x2="100%" y2="100%">
      <stop offset="0%" style="stop-color:#475569"/>
      <stop offset="50%" style="stop-color:#334155"/>
      <stop offset="100%" style="stop-color:#1e293b"/>
    </linearGradient>
    <linearGradient id="lensInner" x1="0%" y1="0%" x2="100%" y2="100%">
      <stop offset="0%" style="stop-color:#0ea5e9"/>
      <stop offset="50%" style="stop-color:#0284c7"/>
      <stop offset="100%" style="stop-color:#0369a1"/>
    </linearGradient>
    <linearGradient id="glowGreen" x1="0%" y1="0%" x2="0%" y2="100%">
      <stop offset="0%" style="stop-color:#22d3ee"/>
      <stop offset="100%" style="stop-color:#06b6d4"/>
    </linearGradient>
    <filter id="glow" x="-50%" y="-50%" width="200%" height="200%">
      <feGaussianBlur stdDeviation="2" result="blur"/>
      <feMerge>
        <feMergeNode in="blur"/>
        <feMergeNode in="SourceGraphic"/>
      </feMerge>
    </filter>
  </defs>
  <rect x="4" y="4" width="112" height="112" rx="26" fill="url(#camBg)"/>
  <rect x="6" y="6" width="108" height="108" rx="24" fill="none" stroke="#334155" stroke-width="1" opacity="0.5"/>
  <ellipse cx="60" cy="54" rx="34" ry="34" fill="url(#lensOuter)"/>
  <ellipse cx="60" cy="54" rx="30" ry="30" fill="#0f172a" stroke="#475569" stroke-width="1.5"/>
  <ellipse cx="60" cy="54" rx="22" ry="22" fill="#020617"/>
  <ellipse cx="60" cy="54" rx="16" ry="16" fill="url(#lensInner)" opacity="0.9"/>
  <ellipse cx="60" cy="54" rx="8" ry="8" fill="#0f172a"/>
  <circle cx="60" cy="54" r="4" fill="#22d3ee" filter="url(#glow)" opacity="0.9"/>
  <ellipse cx="52" cy="46" rx="4" ry="3" fill="#fff" opacity="0.35" transform="rotate(-30 52 46)"/>
  <ellipse cx="68" cy="62" rx="2" ry="1.5" fill="#fff" opacity="0.2" transform="rotate(-30 68 62)"/>
  <g opacity="0.7">
    <rect x="84" y="20" width="16" height="10" rx="3" fill="#334155"/>
    <circle cx="92" cy="25" r="3.5" fill="#1e293b" stroke="#475569" stroke-width="0.5"/>
    <circle cx="92" cy="25" r="2" fill="#ef4444" opacity="0.9"/>
  </g>
  <g transform="translate(14, 92)">
    <rect x="0" y="0" width="92" height="18" rx="5" fill="rgba(6,182,212,0.12)" stroke="rgba(6,182,212,0.3)" stroke-width="0.5"/>
    <text x="8" y="13" font-family="SF Mono, JetBrains Mono, monospace" font-size="9" font-weight="500" fill="#22d3ee">55°45'12"</text>
    <line x1="52" y1="4" x2="52" y2="14" stroke="rgba(6,182,212,0.4)" stroke-width="0.5"/>
    <polygon points="62,6 66,13 58,13" fill="#22d3ee" opacity="0.8"/>
    <text x="70" y="13" font-family="SF Mono, JetBrains Mono, monospace" font-size="9" font-weight="500" fill="#22d3ee">N</text>
  </g>
</svg>
